<svg viewBox="0 0 30 30" fill="none" xmlns="http://www.w3.org/2000/svg">
<path fill-rule="evenodd" clip-rule="evenodd" d="M14.6162 4.87364C9.23447 4.87364 4.87168 9.23642 4.87168 14.6182C4.87168 17.5286 6.1476 20.141 8.17059 21.9266C9.88759 20.4115 12.145 19.4905 14.6162 19.4905C17.0875 19.4905 19.3448 20.4115 21.0618 21.9266C23.0848 20.1411 24.3608 17.5286 24.3608 14.6182C24.3608 9.23642 19.998 4.87364 14.6162 4.87364ZM18.9492 23.3488C17.7363 22.4542 16.2384 21.9266 14.6162 21.9266C12.9941 21.9266 11.4961 22.4542 10.2832 23.3487C11.5883 23.9978 13.0597 24.3627 14.6162 24.3627C16.1728 24.3627 17.644 23.9978 18.9492 23.3488ZM2.43555 14.6182C2.43555 7.89098 7.88903 2.4375 14.6162 2.4375C21.3434 2.4375 26.7969 7.89098 26.7969 14.6182C26.7969 21.3454 21.3434 26.7989 14.6162 26.7989C7.88903 26.7989 2.43555 21.3454 2.43555 14.6182ZM14.6162 10.964C13.2708 10.964 12.1801 12.0547 12.1801 13.4001C12.1801 14.7456 13.2708 15.8363 14.6162 15.8363C15.9617 15.8363 17.0524 14.7456 17.0524 13.4001C17.0524 12.0547 15.9617 10.964 14.6162 10.964ZM9.74396 13.4001C9.74396 10.7092 11.9254 8.52784 14.6162 8.52784C17.3071 8.52784 19.4885 10.7092 19.4885 13.4001C19.4885 16.091 17.3071 18.2724 14.6162 18.2724C11.9254 18.2724 9.74396 16.091 9.74396 13.4001Z"/>
</svg>
