<svg xmlns="http://www.w3.org/2000/svg" viewBox="0 0 10 11" fill="none">
  <path fill-rule="evenodd" clip-rule="evenodd" d="M9.38461 1.94444C9.6301 1.69897 9.6301 1.30098 9.38461 1.0555C9.13913 0.81003 8.74118 0.81003 8.4957 1.0555L4.94017 4.61104L1.38462 1.0555C1.13916 0.81003 0.74116 0.81003 0.495698 1.0555C0.250223 1.30098 0.250223 1.69897 0.495698 1.94444L4.05123 5.49997L0.495629 9.05557C0.250155 9.30106 0.250155 9.699 0.495629 9.94449C0.741103 10.19 1.13909 10.19 1.38457 9.94449L4.94017 6.38891L8.49558 9.94437C8.74107 10.1899 9.13913 10.1899 9.38461 9.94437C9.62998 9.69889 9.62998 9.30094 9.38461 9.05546L5.82909 5.49997L9.38461 1.94444Z"/>
</svg>