<svg viewBox="0 0 27 27" fill="none" xmlns="http://www.w3.org/2000/svg">
<path d="M13.5 25.875C11.4 25.875 9.46875 25.3969 7.70625 24.4406C5.94375 23.4844 4.5 22.2094 3.375 20.6156V22.5C3.375 22.8188 3.267 23.0861 3.051 23.3021C2.835 23.5181 2.568 23.6257 2.25 23.625C1.93125 23.625 1.66388 23.517 1.44788 23.301C1.23188 23.085 1.12425 22.818 1.125 22.5V18C1.125 17.6812 1.233 17.4139 1.449 17.1979C1.665 16.9819 1.932 16.8743 2.25 16.875H6.75C7.06875 16.875 7.33613 16.983 7.55213 17.199C7.76813 17.415 7.87575 17.682 7.875 18C7.875 18.3188 7.767 18.5861 7.551 18.8021C7.335 19.0181 7.068 19.1257 6.75 19.125H5.09063C5.99063 20.475 7.17675 21.5625 8.649 22.3875C10.1213 23.2125 11.7383 23.625 13.5 23.625C16.1438 23.625 18.4174 22.7437 20.3209 20.9812C22.2244 19.2188 23.307 17.0531 23.5688 14.4844C23.6063 14.1844 23.7375 13.9451 23.9625 13.7666C24.1875 13.5881 24.45 13.4993 24.75 13.5C25.0688 13.5 25.3406 13.5986 25.5656 13.7959C25.7906 13.9931 25.8844 14.232 25.8469 14.5125C25.7156 16.1062 25.3031 17.592 24.6094 18.9697C23.9156 20.3475 23.0156 21.5475 21.9094 22.5697C20.8031 23.592 19.5326 24.3983 18.0979 24.9885C16.6631 25.5788 15.1305 25.8743 13.5 25.875ZM13.5 3.375C10.8563 3.375 8.58263 4.25625 6.67913 6.01875C4.77563 7.78125 3.693 9.94687 3.43125 12.5156C3.39375 12.8156 3.2625 13.0549 3.0375 13.2334C2.8125 13.4119 2.55 13.5007 2.25 13.5C1.93125 13.5 1.65938 13.4014 1.43438 13.2041C1.20938 13.0069 1.11563 12.768 1.15313 12.4875C1.28438 10.8938 1.69688 9.408 2.39063 8.03025C3.08438 6.6525 3.98438 5.4525 5.09063 4.43025C6.19688 3.408 7.46738 2.60175 8.90213 2.0115C10.3369 1.42125 11.8695 1.12575 13.5 1.125C15.6 1.125 17.5313 1.60313 19.2938 2.55938C21.0563 3.51563 22.5 4.79063 23.625 6.38438V4.5C23.625 4.18125 23.733 3.91425 23.949 3.699C24.165 3.48375 24.432 3.37575 24.75 3.375C25.0688 3.375 25.3361 3.483 25.5521 3.699C25.7681 3.915 25.8758 4.182 25.875 4.5V9C25.875 9.31875 25.767 9.58613 25.551 9.80212C25.335 10.0181 25.068 10.1257 24.75 10.125H20.25C19.9313 10.125 19.6639 10.017 19.4479 9.801C19.2319 9.585 19.1243 9.318 19.125 9C19.125 8.68125 19.233 8.41388 19.449 8.19788C19.665 7.98188 19.932 7.87425 20.25 7.875H21.9094C21.0094 6.525 19.8233 5.4375 18.351 4.6125C16.8788 3.7875 15.2618 3.375 13.5 3.375ZM13.5 20.25C13.8938 20.25 14.2268 20.1139 14.499 19.8416C14.7713 19.5694 14.907 19.2367 14.9063 18.8438C14.9063 18.45 14.7701 18.1125 14.4979 17.8313C14.2256 17.55 13.893 17.4094 13.5 17.4094C13.1063 17.4094 12.7733 17.5455 12.501 17.8178C12.2288 18.09 12.093 18.4226 12.0938 18.8156C12.0938 19.2094 12.2299 19.5469 12.5021 19.8281C12.7744 20.1094 13.107 20.25 13.5 20.25ZM15.75 13.2188C16.4063 12.5625 16.8424 12.0326 17.0584 11.6291C17.2744 11.2256 17.382 10.743 17.3813 10.1813C17.3813 9.13125 17.0063 8.29688 16.2563 7.67812C15.5063 7.05937 14.5875 6.75 13.5 6.75C12.75 6.75 12.0844 6.90488 11.5031 7.21463C10.9219 7.52437 10.4438 7.97888 10.0688 8.57812C9.91875 8.82188 9.8955 9.08437 9.999 9.36562C10.1025 9.64687 10.2851 9.84375 10.5469 9.95625C10.8094 10.0688 11.0625 10.0594 11.3063 9.92812C11.55 9.79688 11.7656 9.61875 11.9531 9.39375C12.1406 9.16875 12.3656 8.99062 12.6281 8.85938C12.8906 8.72813 13.1813 8.6625 13.5 8.6625C14.0063 8.6625 14.433 8.808 14.7803 9.099C15.1275 9.39 15.3008 9.77888 15.3 10.2656C15.3 10.5844 15.225 10.9031 15.075 11.2219C14.925 11.5406 14.6063 11.9156 14.1188 12.3469C13.65 12.7594 13.2986 13.1625 13.0646 13.5563C12.8306 13.95 12.6664 14.4 12.5719 14.9062C12.5344 15.1875 12.6094 15.4361 12.7969 15.6521C12.9844 15.8681 13.2281 15.9757 13.5281 15.975C13.8094 15.975 14.0438 15.867 14.2313 15.651C14.4188 15.435 14.55 15.1868 14.625 14.9062C14.7 14.5875 14.8268 14.3062 15.0053 14.0625C15.1838 13.8188 15.432 13.5375 15.75 13.2188Z"/>
</svg>
