<svg viewBox="0 0 23 23" fill="none" xmlns="http://www.w3.org/2000/svg">
<path fill-rule="evenodd" clip-rule="evenodd" d="M19.3332 2.67679C18.9832 2.64819 18.5232 2.64723 17.8108 2.64723H5.7007C5.10801 2.64723 4.72547 2.6479 4.43271 2.66788C4.1511 2.68709 4.04384 2.71997 3.99237 2.74129C3.68931 2.86682 3.44863 3.10753 3.32332 3.41004C3.30202 3.46146 3.26913 3.56876 3.24991 3.85051C3.22993 4.14335 3.22926 4.52597 3.22926 5.11865C3.22926 5.80112 2.67601 6.35437 1.99354 6.35437C1.31107 6.35437 0.757814 5.80112 0.757814 5.11865L0.757813 5.07913C0.757798 4.53708 0.757785 4.06937 0.784196 3.68227C0.812005 3.27469 0.873178 2.86702 1.04001 2.46426C1.41637 1.55563 2.13851 0.834116 3.04659 0.457975C3.44931 0.291164 3.85688 0.22998 4.26444 0.202167C4.65148 0.175754 5.11913 0.175767 5.66116 0.175783L17.8584 0.175782C18.5098 0.17576 19.0717 0.175741 19.5345 0.21356C20.0231 0.25348 20.5089 0.341618 20.9764 0.57984C21.6735 0.935001 22.2413 1.5019 22.597 2.19996C22.8353 2.66766 22.9233 3.15366 22.9632 3.64212C23.0009 4.10413 23.0008 4.66498 23.0008 5.3149V17.2794C23.0008 17.9294 23.0009 18.4903 22.9632 18.9524C22.9233 19.4409 22.8353 19.927 22.597 20.3947C22.2413 21.0929 21.6733 21.6596 20.9764 22.0147C20.5089 22.2529 20.0231 22.341 19.5346 22.381C19.0716 22.4188 18.5096 22.4188 17.858 22.4188H5.66077C5.11891 22.4188 4.6514 22.4188 4.26447 22.3924C3.85691 22.3646 3.44932 22.3034 3.04659 22.1366C2.13847 21.7604 1.41636 21.0389 1.04001 20.1303C0.873178 19.7275 0.812005 19.3198 0.784196 18.9123C0.757785 18.5252 0.757798 18.0575 0.757813 17.5154L0.757814 17.4759C0.757814 16.7934 1.31107 16.2402 1.99354 16.2402C2.67601 16.2402 3.22926 16.7934 3.22926 17.4759C3.22926 18.0686 3.22993 18.4512 3.24991 18.744C3.26913 19.0258 3.30202 19.1331 3.32332 19.1845C3.44864 19.487 3.68935 19.7278 3.99237 19.8533C4.04382 19.8746 4.15107 19.9075 4.43269 19.9267C4.72546 19.9467 5.108 19.9473 5.7007 19.9473H17.8108C18.5232 19.9473 18.9832 19.9464 19.3332 19.9177C19.6688 19.8903 19.7932 19.8438 19.8544 19.8126C20.0876 19.6938 20.2768 19.5046 20.3949 19.2727C20.426 19.2117 20.4725 19.0874 20.4999 18.7516C20.5285 18.4013 20.5294 17.9413 20.5294 17.2287V5.36575C20.5294 4.65317 20.5285 4.19318 20.4999 3.843C20.4725 3.50727 20.426 3.38294 20.3949 3.32197C20.2767 3.08996 20.0874 2.90064 19.8544 2.78191C19.7933 2.75076 19.6688 2.70422 19.3332 2.67679ZM11.0055 6.71633C11.4881 6.23375 12.2705 6.23375 12.7531 6.71633L16.4603 10.4235C16.9428 10.9061 16.9428 11.6885 16.4603 12.1711L12.7531 15.8782C12.2705 16.3608 11.4881 16.3608 11.0055 15.8782C10.5229 15.3957 10.5229 14.6132 11.0055 14.1307L12.6032 12.533L1.99354 12.533C1.31107 12.533 0.757814 11.9797 0.757814 11.2973C0.757814 10.6148 1.31107 10.0616 1.99354 10.0616L12.6032 10.0616L11.0055 8.4639C10.5229 7.98132 10.5229 7.1989 11.0055 6.71633Z"/>
</svg>
