<svg viewBox="0 0 22 22" fill="none" xmlns="http://www.w3.org/2000/svg">
<path d="M1.66667 14.5C1.95242 14.5 2.22823 14.6049 2.44177 14.7948C2.65531 14.9847 2.79173 15.2464 2.82517 15.5302L2.83333 15.6667V19.1667H7.5C7.79736 19.167 8.08337 19.2809 8.2996 19.485C8.51582 19.6891 8.64594 19.9681 8.66337 20.265C8.68079 20.5618 8.58421 20.8541 8.39336 21.0821C8.2025 21.3102 7.93178 21.4567 7.6365 21.4918L7.5 21.5H2.83333C2.24466 21.5002 1.67767 21.2779 1.24603 20.8776C0.814382 20.4773 0.549984 19.9287 0.505833 19.3417L0.5 19.1667V15.6667C0.5 15.3572 0.622916 15.0605 0.841709 14.8417C1.0605 14.6229 1.35725 14.5 1.66667 14.5ZM20.3333 14.5C20.6428 14.5 20.9395 14.6229 21.1583 14.8417C21.3771 15.0605 21.5 15.3572 21.5 15.6667V19.1667C21.5 19.7855 21.2542 20.379 20.8166 20.8166C20.379 21.2542 19.7855 21.5 19.1667 21.5H14.5C14.1906 21.5 13.8938 21.3771 13.675 21.1583C13.4562 20.9395 13.3333 20.6428 13.3333 20.3333C13.3333 20.0239 13.4562 19.7272 13.675 19.5084C13.8938 19.2896 14.1906 19.1667 14.5 19.1667H19.1667V15.6667C19.1667 15.3572 19.2896 15.0605 19.5084 14.8417C19.7272 14.6229 20.0239 14.5 20.3333 14.5ZM20.3333 9.83333C20.6307 9.83366 20.9167 9.94753 21.1329 10.1517C21.3492 10.3558 21.4793 10.6348 21.4967 10.9316C21.5141 11.2285 21.4175 11.5208 21.2267 11.7488C21.0358 11.9768 20.7651 12.1234 20.4698 12.1585L20.3333 12.1667H1.66667C1.36931 12.1663 1.0833 12.0525 0.86707 11.8483C0.650845 11.6442 0.520726 11.3652 0.503299 11.0684C0.485873 10.7715 0.582454 10.4792 0.773309 10.2512C0.964164 10.0232 1.23489 9.87662 1.53017 9.8415L1.66667 9.83333H20.3333ZM7.5 0.5C7.80942 0.5 8.10616 0.622916 8.32496 0.841709C8.54375 1.0605 8.66667 1.35725 8.66667 1.66667C8.66667 1.97609 8.54375 2.27283 8.32496 2.49162C8.10616 2.71042 7.80942 2.83333 7.5 2.83333H2.83333V6.33333C2.83333 6.64275 2.71042 6.9395 2.49162 7.15829C2.27283 7.37708 1.97609 7.5 1.66667 7.5C1.35725 7.5 1.0605 7.37708 0.841709 7.15829C0.622916 6.9395 0.5 6.64275 0.5 6.33333V2.83333C0.5 2.21449 0.745833 1.621 1.18342 1.18342C1.621 0.745833 2.21449 0.5 2.83333 0.5H7.5ZM19.1667 0.5C19.7855 0.5 20.379 0.745833 20.8166 1.18342C21.2542 1.621 21.5 2.21449 21.5 2.83333V6.33333C21.5 6.64275 21.3771 6.9395 21.1583 7.15829C20.9395 7.37708 20.6428 7.5 20.3333 7.5C20.0239 7.5 19.7272 7.37708 19.5084 7.15829C19.2896 6.9395 19.1667 6.64275 19.1667 6.33333V2.83333H14.5C14.1906 2.83333 13.8938 2.71042 13.675 2.49162C13.4562 2.27283 13.3333 1.97609 13.3333 1.66667C13.3333 1.35725 13.4562 1.0605 13.675 0.841709C13.8938 0.622916 14.1906 0.5 14.5 0.5H19.1667Z"/>
</svg>
